<?xml version="1.0" encoding="UTF-8"?>
<svg width="13px" height="13px" viewBox="0 0 13 13" version="1.1" xmlns="http://www.w3.org/2000/svg" xmlns:xlink="http://www.w3.org/1999/xlink">
    <title>close</title>
    <defs>
        <path d="M12.9140958,12 L17.2070958,7.707 C17.5980958,7.316 17.5980958,6.684 17.2070958,6.293 C16.8160958,5.902 16.1840958,5.902 15.7930958,6.293 L11.5000958,10.586 L7.20709583,6.293 C6.81609583,5.902 6.18409583,5.902 5.79309583,6.293 C5.40209583,6.684 5.40209583,7.316 5.79309583,7.707 L10.0860958,12 L5.79309583,16.293 C5.40209583,16.684 5.40209583,17.316 5.79309583,17.707 C5.98809583,17.902 6.24409583,18 6.50009583,18 C6.75609583,18 7.01209583,17.902 7.20709583,17.707 L11.5000958,13.414 L15.7930958,17.707 C15.9880958,17.902 16.2440958,18 16.5000958,18 C16.7560958,18 17.0120958,17.902 17.2070958,17.707 C17.5980958,17.316 17.5980958,16.684 17.2070958,16.293 L12.9140958,12 Z" id="path-1"></path>
    </defs>
    <g id="Symbols" stroke="none" stroke-width="1" fill="none" fill-rule="evenodd">
        <g id="close" transform="translate(-4.704187, -5.526316)">
            <mask id="mask-2" fill="white">
                <use xlink:href="#path-1"></use>
            </mask>
            <use id="🎨-Icon-Сolor" fill="#ffffff" fill-rule="nonzero" xlink:href="#path-1"></use>
        </g>
    </g>
</svg>