<?xml version="1.0" encoding="UTF-8"?>
<svg width="21px" height="17px" viewBox="0 0 21 17" version="1.1" xmlns="http://www.w3.org/2000/svg" xmlns:xlink="http://www.w3.org/1999/xlink">
    <title>university</title>
    <defs>
        <filter id="filter-1">
            <feColorMatrix in="SourceGraphic" type="matrix" values="0 0 0 0 0.800000 0 0 0 0 0.803922 0 0 0 0 0.807843 0 0 0 1.000000 0"></feColorMatrix>
        </filter>
    </defs>
    <g id="Symbols" stroke="none" stroke-width="1" fill="none" fill-rule="evenodd">
        <g filter="url(#filter-1)" id="university">
            <g>
                <path d="M20.49,6.19 L19.49,5.64 L19.49,5.64 L10.49,0.64 L10.38,0.64 C10.318691,0.614078764 10.2550767,0.59399004 10.19,0.58 L10,0.58 L9.82,0.58 C9.75167834,0.593999246 9.68474519,0.61407919 9.62,0.64 L9.51,0.64 L0.51,5.64 C0.196689548,5.81756122 0.00305172142,6.14987304 0.00305172142,6.51 C0.00305172142,6.87012696 0.196689548,7.20243878 0.51,7.38 L3,8.76 L3,13.5 C3,15.1568542 4.34314575,16.5 6,16.5 L14,16.5 C15.6568542,16.5 17,15.1568542 17,13.5 L17,8.76 L19,7.64 L19,10.5 C19,11.0522847 19.4477153,11.5 20,11.5 C20.5522847,11.5 21,11.0522847 21,10.5 L21,7.06 C20.9993783,6.69923592 20.8044869,6.36677412 20.49,6.19 Z M15,13.5 C15,14.0522847 14.5522847,14.5 14,14.5 L6,14.5 C5.44771525,14.5 5,14.0522847 5,13.5 L5,9.87 L9.51,12.37 L9.66,12.43 L9.75,12.43 C9.83300524,12.4404577 9.91699476,12.4404577 10,12.43 L10,12.43 C10.0830052,12.4404577 10.1669948,12.4404577 10.25,12.43 L10.34,12.43 C10.3930883,12.4188077 10.4438379,12.3985078 10.49,12.37 L15,9.87 L15,13.5 Z M10,10.36 L3.06,6.5 L10,2.64 L16.94,6.5 L10,10.36 Z" id="Shape" fill="#6563FF" fill-rule="nonzero"></path>
            </g>
        </g>
    </g>
</svg>