<?xml version="1.0" encoding="UTF-8"?>
<svg width="18px" height="18px" viewBox="0 0 18 18" version="1.1" xmlns="http://www.w3.org/2000/svg" xmlns:xlink="http://www.w3.org/1999/xlink">
    <title>copy</title>
    <defs>
        <path d="M12,11 C11.449,11 11,11.449 11,12 L11,18 C11,18.551 11.449,19 12,19 L18,19 C18.552,19 19,18.551 19,18 L19,12 C19,11.449 18.552,11 18,11 L12,11 Z M12.333,3 C13.804,3 15,4.196 15,5.667 L15,9 L18,9 C19.654,9 21,10.346 21,12 L21,18 C21,19.654 19.654,21 18,21 L12,21 C10.346,21 9,19.654 9,18 L9,15 L5.667,15 C4.196,15 3,13.804 3,12.333 L3,5.667 C3,4.196 4.196,3 5.667,3 L12.333,3 Z M12.333,5 L5.667,5 C5.299,5 5,5.299 5,5.667 L5,12.333 C5,12.701 5.299,13 5.667,13 L9,13 L9,12 C9,10.346 10.346,9 12,9 L13,9 L13,5.667 C13,5.299 12.701,5 12.333,5 Z" id="path-1"></path>
    </defs>
    <g id="Symbols" stroke="none" stroke-width="1" fill="none" fill-rule="evenodd">
        <g id="copy" transform="translate(-3.000000, -3.000000)">
            <mask id="mask-2" fill="white">
                <use xlink:href="#path-1"></use>
            </mask>
            <use id="🎨-Icon-Сolor" fill="#0CC44A" xlink:href="#path-1"></use>
        </g>
    </g>
</svg>