<?xml version="1.0" encoding="UTF-8"?>
<svg width="16px" height="16px" viewBox="0 0 16 16" version="1.1" xmlns="http://www.w3.org/2000/svg" xmlns:xlink="http://www.w3.org/1999/xlink">
    <title>search</title>
    <defs>
        <path d="M1.77778086,7.11112346 C1.77778086,4.16978502 4.16978502,1.77778086 7.11112346,1.77778086 C10.0524619,1.77778086 12.444466,4.16978502 12.444466,7.11112346 C12.444466,10.0524619 10.0524619,12.444466 7.11112346,12.444466 C4.16978502,12.444466 1.77778086,10.0524619 1.77778086,7.11112346 M15.7395829,14.4826918 L12.7217999,11.4640199 C13.6578015,10.2604623 14.2222469,8.75201519 14.2222469,7.11112346 C14.2222469,3.19022776 11.0320192,-4.54747351e-13 7.11112346,-4.54747351e-13 C3.19022776,-4.54747351e-13 0,3.19022776 0,7.11112346 C0,11.0320192 3.19022776,14.2222469 7.11112346,14.2222469 C8.75201519,14.2222469 10.2604623,13.6578015 11.4640199,12.7217999 L14.4826918,15.7395829 C14.6560254,15.9129165 14.8835814,16.0000278 15.1111373,16.0000278 C15.3386933,16.0000278 15.5662492,15.9129165 15.7395829,15.7395829 C16.087139,15.3920267 16.087139,14.830248 15.7395829,14.4826918" id="path-1"></path>
    </defs>
    <g id="Symbols" stroke="none" stroke-width="1" fill="none" fill-rule="evenodd">
        <g id="search">
            <mask id="mask-2" fill="white">
                <use xlink:href="#path-1"></use>
            </mask>
            <use id="🎨-Icon-Сolor" fill="#CCCDCE" xlink:href="#path-1"></use>
        </g>
    </g>
</svg>