<?xml version="1.0" encoding="utf-8"?>
<!-- Svg Vector Icons : http://www.onlinewebfonts.com/icon -->
<!DOCTYPE svg PUBLIC "-//W3C//DTD SVG 1.1//EN" "http://www.w3.org/Graphics/SVG/1.1/DTD/svg11.dtd">
<svg version="1.1" xmlns="http://www.w3.org/2000/svg" xmlns:xlink="http://www.w3.org/1999/xlink" x="0px" y="0px" viewBox="0 0 1000 1000" enable-background="new 0 0 1000 1000" xml:space="preserve">
<metadata> Svg Vector Icons : http://www.onlinewebfonts.com/icon </metadata>
<g><g fill="#CCCDCE" transform="translate(0.000000,511.000000) scale(0.100000,-0.100000)"><path d="M4613.4,4990.3c-768.3-81.7-1526.5-414.8-2106.8-929.8c-472-418.9-848-976.8-1052.4-1563.2c-392.4-1128-241.1-2290.7,449.6-3449.4c300.4-502.7,696.8-1005.4,1542.8-1953.5c711.1-797,1220-1424.3,1442.7-1777.8c92-143,128.7-143,222.7,6.1c102.2,161.4,523.1,713.2,750,985c118.5,141,441.4,510.9,719.3,825.6c764.2,860.3,1052.4,1213.8,1354.8,1667.5c931.8,1391.6,1074.8,2844.5,412.8,4148.2C7977,3678.4,7415,4238.3,6685.5,4604.1C6031.6,4931,5322.5,5063.8,4613.4,4990.3z M4339.6,3312.6c139-138.9,251.3-263.6,251.3-282c0-16.3-108.3-139-239.1-269.7l-241.1-241.1l425-425l423-423l365.8,367.8c361.7,365.8,363.7,367.8,396.4,500.6c18.4,73.6,36.8,230.9,40.9,349.4c14.3,324.9,87.9,441.4,376,584.4c120.5,59.3,179.8,75.6,304.5,83.8c179.8,12.3,423-26.6,461.8-71.5c30.7-38.8,16.3-49-226.8-185.9c-269.7-151.2-308.6-265.7-173.7-502.7c136.9-237,243.2-253.4,541.5-83.8c108.3,61.3,212.5,112.4,230.9,112.4c53.1,0,42.9-173.7-18.4-304.5c-120.6-257.5-331-478.2-517-545.6c-45-16.3-169.6-26.6-296.3-28.6c-153.3,0-243.2-10.2-288.1-30.6c-34.7-16.3-214.5-181.9-400.5-367.8l-337.2-337.2l882.8-882.8c484.3-486.3,886.8-905.2,895-931.8c22.5-79.7-26.6-173.7-159.4-306.5c-128.7-126.7-204.3-165.5-300.4-151.2c-34.7,6.1-331,286.1-935.9,888.9l-882.8,882.8l-286.1-286.1C4280.3,73.7,4266,45.1,4243.6-335c-12.3-214.6-24.5-288.1-61.3-363.7c-51.1-106.3-196.2-226.8-357.6-300.4c-226.8-100.1-805.1-55.2-729.5,57.2c8.2,12.2,100.1,69.5,202.3,128.7c104.2,59.2,208.4,130.8,230.9,159.4c61.3,77.7,53.1,192.1-24.5,337.2c-139,259.5-241.1,280-539.5,108.3c-249.3-143-273.8-145.1-273.8-12.3c0,206.4,257.5,578.3,484.3,700.9c85.8,47,128.7,53.1,353.5,61.3c179.8,6.1,273.8,20.4,316.7,42.9c34.7,16.4,186,157.3,337.2,308.6l275.9,277.9l-425,423l-423,425l-353.5-353.5c-194.1-192.1-365.8-351.5-384.2-351.5c-73.6,0-79.7,36.8-79.7,539.5V2344l606.9,609c394.4,394.4,623.3,608.9,649.8,608.9C4074,3561.9,4186.3,3465.8,4339.6,3312.6z"/></g></g>
</svg>